HIERARCHY
ROOT Hips
{
  OFFSET -4.35178 90.3298 111.633
  CHANNELS 6 Xposition Yposition Zposition Zrotation Xrotation Yrotation
  JOINT LeftUpLeg
  {
    OFFSET 0.103456 1.85784 10.5485
    CHANNELS 6 Xposition Yposition Zposition Zrotation Xrotation Yrotation
    JOINT LeftLeg
    {
      OFFSET 43.5 -4.2e-05 0
      CHANNELS 6 Xposition Yposition Zposition Zrotation Xrotation Yrotation
      JOINT LeftFoot
      {
        OFFSET 42.3722 1.9e-05 0
        CHANNELS 6 Xposition Yposition Zposition Zrotation Xrotation Yrotation
        JOINT LeftToe
        {
          OFFSET 17.3 0 0
          CHANNELS 6 Xposition Yposition Zposition Zrotation Xrotation Yrotation
          End Site
          {
            OFFSET 0 0 0
          }
        }
      }
    }
  }
  JOINT RightUpLeg
  {
    OFFSET 0.103456 1.85782 -10.5485
    CHANNELS 6 Xposition Yposition Zposition Zrotation Xrotation Yrotation
    JOINT RightLeg
    {
      OFFSET 43.5 -2.7e-05 0
      CHANNELS 6 Xposition Yposition Zposition Zrotation Xrotation Yrotation
      JOINT RightFoot
      {
        OFFSET 42.3723 0 0
        CHANNELS 6 Xposition Yposition Zposition Zrotation Xrotation Yrotation
        JOINT RightToe
        {
          OFFSET 17.3 0 1.7e-05
          CHANNELS 6 Xposition Yposition Zposition Zrotation Xrotation Yrotation
          End Site
          {
            OFFSET 0 0 0
          }
        }
      }
    }
  }
  JOINT Spine
  {
    OFFSET 6.90197 -2.60373 0
    CHANNELS 6 Xposition Yposition Zposition Zrotation Xrotation Yrotation
    JOINT Spine1
    {
      OFFSET 12.5881 0 0
      CHANNELS 6 Xposition Yposition Zposition Zrotation Xrotation Yrotation
      JOINT Spine2
      {
        OFFSET 12.3432 -1.8e-05 0
        CHANNELS 6 Xposition Yposition Zposition Zrotation Xrotation Yrotation
        JOINT Neck
        {
          OFFSET 25.8329 2.3e-05 0
          CHANNELS 6 Xposition Yposition Zposition Zrotation Xrotation Yrotation
          JOINT Head
          {
            OFFSET 11.7666 0 0
            CHANNELS 6 Xposition Yposition Zposition Zrotation Xrotation Yrotation
            End Site
            {
              OFFSET 0 0 0
            }
          }
        }
        JOINT LeftShoulder
        {
          OFFSET 19.7459 -1.48035 6.0001
          CHANNELS 6 Xposition Yposition Zposition Zrotation Xrotation Yrotation
          JOINT LeftArm
          {
            OFFSET 11.2841 1.8e-05 -2e-05
            CHANNELS 6 Xposition Yposition Zposition Zrotation Xrotation Yrotation
            JOINT LeftForeArm
            {
              OFFSET 33 -1.3e-05 1.9e-05
              CHANNELS 6 Xposition Yposition Zposition Zrotation Xrotation Yrotation
              JOINT LeftHand
              {
                OFFSET 25.2 3.2e-05 1.1e-05
                CHANNELS 6 Xposition Yposition Zposition Zrotation Xrotation Yrotation
                End Site
                {
                  OFFSET 0 0 0
                }
              }
            }
          }
        }
        JOINT RightShoulder
        {
          OFFSET 19.7461 -1.48036 -6.00008
          CHANNELS 6 Xposition Yposition Zposition Zrotation Xrotation Yrotation
          JOINT RightArm
          {
            OFFSET 11.2841 0 0
            CHANNELS 6 Xposition Yposition Zposition Zrotation Xrotation Yrotation
            JOINT RightForeArm
            {
              OFFSET 33.0001 1.6e-05 0
              CHANNELS 6 Xposition Yposition Zposition Zrotation Xrotation Yrotation
              JOINT RightHand
              {
                OFFSET 25.1998 0.000123 0.000432
                CHANNELS 6 Xposition Yposition Zposition Zrotation Xrotation Yrotation
                End Site
                {
                  OFFSET 0 0 0
                }
              }
            }
          }
        }
      }
    }
  }
}
MOTION
Frames:	10
Frame Time:	0.0333333
6.87152 79.1509 -38.9949 -69.1667 60.7725 166.722 0.103456 1.85784 10.5485 -31.1447 18.9839 172.5 43.5 -4.2e-05 1e-05 -61.3304 -8.41974 15.0379 42.3722 1.9e-05 0 78.1339 10.1778 -1.25023 17.3 2.66454e-15 3e-06 21.4546 -1e-06 0.003093 0.103456 1.85782 -10.5485 -4.18383 -8.07697 173.535 43.5 -2.7e-05 4e-06 -96.8003 29.6509 2.92115 42.3723 7.10543e-15 1e-05 86.0222 -34.5752 13.7825 17.3 -6e-06 1.7e-05 21.4546 -1.9e-05 -0.003116 6.90197 -2.60373 -3e-06 11.0651 -0.187201 -1.44497 12.5881 1e-05 8e-06 12.1192 -0.523822 -2.80537 12.3432 -1.8e-05 -5e-06 11.8141 -0.5153 -2.7518 25.8329 2.3e-05 7e-06 6.68462 -1.03877 -3.03523 11.7666 -8e-06 -6e-06 -27.3166 -11.3069 15.1385 19.7459 -1.48035 6.0001 -179.419 -0.0042098 -88.9544 11.2841 1.8e-05 -2e-05 -5.99888 -15.5798 66.4597 33 -1.3e-05 1.9e-05 -50.9156 6.38338 -5.6808 25.2 3.2e-05 1.1e-05 -23.673 28.9098 3.92892 19.7461 -1.48036 -6.00008 -175.127 -8.09798 79.1194 11.2841 0 -1e-06 -39.4731 -21.4903 -46.601 33.0001 1.6e-05 -1e-06 -104.354 -3.90907 25.2494 25.1998 0.000123 0.000432 -2.23127 -33.5526 28.2176 
9.64446 78.6322 -31.4228 -64.2865 62.341 162.756 0.103456 1.85784 10.5485 -25.8993 19.2838 172.559 43.5 -4.2e-05 1e-05 -65.6022 -10.8309 15.2233 42.3722 1.9e-05 0 83.1644 9.00248 0.635518 17.3 1.77636e-15 3e-06 21.4546 -1e-06 0.003093 0.103456 1.85782 -10.5485 -15.943 -7.20957 170.501 43.5 -2.7e-05 4e-06 -101.371 24.5562 -0.166829 42.3723 -7.10543e-15 1e-05 84.0577 -23.3228 1.90593 17.3 -6e-06 1.7e-05 21.4546 -1.9e-05 -0.003116 6.90197 -2.60373 -3e-06 10.921 -0.218269 -1.91652 12.5881 1e-05 8e-06 11.8282 -0.681624 -3.73765 12.3432 -1.8e-05 -5e-06 11.5259 -0.734923 -3.67243 25.8329 2.3e-05 7e-06 6.00596 0.163662 -3.17114 11.7666 -8e-06 -6e-06 -25.3227 -10.5891 15.5482 19.7459 -1.48035 6.0001 178.98 1.76516 -87.4459 11.2841 1.8e-05 -2e-05 1.60492 -22.2081 69.3854 33 -1.3e-05 1.9e-05 -33.0898 4.46094 -9.44784 25.2 3.2e-05 1.1e-05 -19.5264 22.8287 6.36594 19.7461 -1.48036 -6.00008 -174.991 -5.89161 77.2698 11.2841 0 -1e-06 -38.7793 -27.091 -46.3834 33.0001 1.6e-05 -1e-06 -101.323 0.785874 24.873 25.1998 0.000123 0.000432 0.557423 -34.8354 29.7018 
11.8319 78.8227 -23.8375 -58.1716 65.5956 156.804 0.103456 1.85784 10.5485 -20.3564 19.6177 176.027 43.5 -4.2e-05 1e-05 -68.6793 -10.6967 11.4128 42.3722 1.9e-05 0 87.0179 7.74635 2.60483 17.3 -8.88178e-16 3e-06 21.4546 -1e-06 0.003093 0.103456 1.85782 -10.5485 -27.4146 -6.59812 170.987 43.5 -2.7e-05 4e-06 -97.8552 19.0083 -3.98987 42.3723 7.10543e-15 1e-05 82.4547 -9.16699 -9.51078 17.3 -6e-06 1.7e-05 21.4546 -1.9e-05 -0.003116 6.90197 -2.60373 -3e-06 11.0272 -0.193646 -2.1149 12.5881 1e-05 8e-06 12.0391 -0.674508 -4.13616 12.3432 -1.8e-05 -5e-06 11.7365 -0.749309 -4.07069 25.8329 2.3e-05 7e-06 4.74044 0.700827 -3.24828 11.7666 -8e-06 -6e-06 -24.7683 -9.37149 14.8344 19.7459 -1.48035 6.0001 -179.997 2.24121 -86.5074 11.2841 1.8e-05 -2e-05 12.8991 -26.1228 73.7995 33 -1.3e-05 1.9e-05 -28.4154 -3.58396 -9.80693 25.2 3.2e-05 1.1e-05 -8.54687 21.6117 5.63469 19.7461 -1.48036 -6.00008 -174.446 -4.65051 76.6782 11.2841 0 -1e-06 -37.3028 -31.6538 -45.0079 33.0001 1.6e-05 -1e-06 -103.538 5.5816 25.9998 25.1998 0.000123 0.000432 1.37523 -33.0754 27.6308 
13.6725 79.6749 -15.9965 -49.8035 68.1739 148.191 0.103456 1.85784 10.5485 -15.844 19.497 179.581 43.5 -4.2e-05 1e-05 -73.039 -9.8043 7.70861 42.3722 1.9e-05 7.10543e-15 82.9306 8.93656 5.4257 17.3 -1.77636e-15 3e-06 21.4546 -1e-06 0.003093 0.103456 1.85782 -10.5485 -34.3735 -7.6759 172.918 43.5 -2.7e-05 4e-06 -85.6485 14.7223 -7.10889 42.3723 -3.55271e-15 1e-05 82.8175 0.602455 -15.4288 17.3 -6e-06 1.7e-05 21.4546 -1.9e-05 -0.003116 6.90197 -2.60373 -3e-06 11.2909 0.00743503 -2.05913 12.5881 1e-05 8e-06 12.569 -0.266547 -4.06537 12.3432 -1.8e-05 -5e-06 12.2599 -0.329741 -4.02554 25.8329 2.3e-05 7e-06 3.44557 1.0038 -3.45348 11.7666 -8e-06 -6e-06 -24.1998 -8.11713 13.9946 19.7459 -1.48035 6.0001 -179.399 1.27199 -85.5068 11.2841 1.8e-05 -2e-05 13.3951 -24.4069 71.6378 33 -1.3e-05 1.9e-05 -31.5788 -9.30181 -6.38231 25.2 3.2e-05 1.1e-05 -10.2617 20.2753 5.79165 19.7461 -1.48036 -6.00008 -173.676 -2.65671 75.807 11.2841 0 -1e-06 -34.8562 -35.1901 -43.8292 33.0001 1.6e-05 -1e-06 -107.787 8.42012 28.2496 25.1998 0.000123 0.000432 1.37107 -30.6752 25.0469 
15.5781 80.4303 -8.32846 -43.7364 69.2105 141.536 0.103456 1.85784 10.5485 -17.5694 17.9838 -178.342 43.5 -4.2e-05 1e-05 -82.0508 -9.95143 7.69644 42.3722 1.9e-05 0 66.4694 13.509 5.10191 17.3 0 3e-06 21.4546 -1e-06 0.003093 0.103456 1.85782 -10.5485 -36.777 -10.1678 174.839 43.5 -2.7e-05 4e-06 -67.3133 11.7616 -9.96047 42.3723 1.77636e-15 1e-05 81.7137 2.81346 -12.6198 17.3 -6e-06 1.7e-05 21.4546 -1.9e-05 -0.003116 6.90197 -2.60373 -3e-06 11.4766 0.415654 -1.74329 12.5881 1e-05 8e-06 12.9452 0.609695 -3.52413 12.3432 -1.8e-05 -5e-06 12.623 0.583969 -3.53977 25.8329 2.3e-05 7e-06 2.65467 1.30299 -3.18302 11.7666 -8e-06 -6e-06 -23.6857 -7.82236 13.7298 19.7459 -1.48035 6.0001 -179.556 -1.27241 -85.0128 11.2841 1.8e-05 -2e-05 6.82337 -20.2871 67.4416 33 -1.3e-05 1.9e-05 -40.1311 -8.78814 -3.40622 25.2 3.2e-05 1.1e-05 -15.4715 20.0315 7.18902 19.7461 -1.48036 -6.00008 -171.079 -0.643184 73.9547 11.2841 0 -1e-06 -28.8716 -36.4567 -42.2474 33.0001 1.6e-05 -1e-06 -111.659 7.65927 30.1746 25.1998 0.000123 0.000432 1.36426 -30.1952 24.7646 
17.2875 80.6877 -0.632188 -42.8685 68.0541 139.81 0.103456 1.85784 10.5485 -21.5923 17.666 -174.985 43.5 -4.2e-05 1e-05 -89.9003 -13.6036 8.09607 42.3722 1.9e-05 0 57.145 22.7229 4.2744 17.3 0 3e-06 21.4546 -1e-06 0.003093 0.103456 1.85782 -10.5485 -33.7021 -12.8628 174.907 43.5 -2.7e-05 4e-06 -45.2615 6.6643 -8.74428 42.3723 7.10543e-15 1e-05 76.7455 1.53554 -5.87435 17.3 -6e-06 1.7e-05 21.4546 -1.9e-05 -0.003116 6.90197 -2.60373 -3e-06 11.6358 0.671145 -1.24879 12.5881 1e-05 8e-06 13.2617 1.22305 -2.59756 12.3432 -1.8e-05 -5e-06 12.9305 1.25829 -2.65302 25.8329 2.3e-05 7e-06 2.05 1.68249 -2.84751 11.7666 -8e-06 -6e-06 -22.7095 -8.13817 14.2671 19.7459 -1.48035 6.0001 -179.594 -4.30666 -85.3598 11.2841 1.8e-05 -2e-05 -1.79316 -14.9379 64.0358 33 -1.3e-05 1.9e-05 -52.1336 -3.7925 -2.64498 25.2 3.2e-05 1.1e-05 -22.561 23.0509 6.93395 19.7461 -1.48036 -6.00008 -168.486 0.716205 71.4003 11.2841 1.42109e-14 -1e-06 -21.3054 -35.4801 -40.1346 33.0001 1.6e-05 -1e-06 -113.577 5.73894 30.8872 25.1998 0.000123 0.000432 1.62726 -30.028 24.7 
19.0822 80.0154 7.33173 -42.3116 66.4647 138.693 0.103456 1.85784 10.5485 -24.5147 17.973 -173.41 43.5 -4.2e-05 1e-05 -92.9329 -15.3289 8.89628 42.3722 1.9e-05 0 63.0691 19.0469 5.42043 17.3 0 3e-06 21.4546 -1e-06 0.003093 0.103456 1.85782 -10.5485 -27.66 -14.8378 174.709 43.5 -2.7e-05 4e-06 -27.1221 3.03701 -5.21475 42.3723 -7.10543e-15 1e-05 72.0147 -0.653794 -2.8092 17.3 -6e-06 1.7e-05 21.4546 -1.9e-05 -0.003116 6.90197 -2.60373 -3e-06 11.5308 0.79108 -0.884252 12.5881 1e-05 8e-06 13.0472 1.53952 -1.89805 12.3432 -1.8e-05 -5e-06 12.7108 1.61417 -1.97419 25.8329 2.3e-05 7e-06 1.78748 1.70191 -2.87483 11.7666 -8e-06 -6e-06 -19.2064 -8.23215 14.9316 19.7459 -1.48035 6.0001 -179.303 -6.95733 -85.7232 11.2841 1.8e-05 -2e-05 -7.56994 -10.001 60.9177 33 -1.3e-05 1.9e-05 -59.5265 -1.33757 -2.14788 25.2 3.2e-05 1.1e-05 -27.6124 25.7724 6.36604 19.7461 -1.48036 -6.00008 -167.811 1.46031 70.0332 11.2841 -7.10543e-15 -1e-06 -16.9785 -33.3623 -37.9633 33.0001 1.6e-05 -1e-06 -112.873 4.72834 30.1087 25.1998 0.000123 0.000432 3.83871 -29.0235 24.2166 
20.6007 78.3009 15.0079 -39.7782 64.4345 135.934 0.103456 1.85784 10.5485 -27.8376 18.9496 -172.541 43.5 -4.2e-05 1e-05 -91.6042 -14.6293 9.7787 42.3722 1.9e-05 -3.55271e-15 66.9742 10.0081 8.78032 17.3 0 3e-06 21.4546 -1e-06 0.003093 0.103456 1.85782 -10.5485 -25.9171 -15.9446 175.671 43.5 -2.7e-05 4e-06 -31.1252 2.1124 -6.56091 42.3723 -7.10543e-15 1e-05 64.4479 -7.12542 -6.63838 17.3 -6e-06 1.7e-05 21.4546 -1.9e-05 -0.003116 6.90197 -2.60373 -3e-06 11.3592 0.745713 -0.651164 12.5881 1e-05 8e-06 12.7003 1.49759 -1.42314 12.3432 -1.8e-05 -5e-06 12.3636 1.59646 -1.4974 25.8329 2.3e-05 7e-06 1.56455 1.11057 -2.87428 11.7666 -8e-06 -6e-06 -13.3358 -7.97174 14.9528 19.7459 -1.48035 6.0001 -179.072 -8.73088 -85.8207 11.2841 1.8e-05 -2e-05 -8.0706 -8.08737 58.8239 33 -1.3e-05 1.9e-05 -58.1469 -3.57194 -1.27094 25.2 3.2e-05 1.1e-05 -27.1966 25.6252 6.40105 19.7461 -1.48036 -6.00008 -168.672 0.799297 70.0761 11.2841 -7.10543e-15 -1e-06 -15.7963 -30.3043 -34.8983 33.0001 1.6e-05 -1e-06 -109.836 5.34414 28.3403 25.1998 0.000123 0.000432 5.09628 -25.8821 21.33 
21.4968 76.4242 21.5596 -33.7806 62.0635 129.844 0.103456 1.85784 10.5485 -30.1035 20.9276 -170.718 43.5 -4.2e-05 1e-05 -85.388 -11.9827 9.6472 42.3722 1.9e-05 -3.55271e-15 71.3794 -0.268982 14.6818 17.3 -7.10543e-15 3e-06 21.4546 -1e-06 0.003093 0.103456 1.85782 -10.5485 -28.0894 -18.2024 -179.496 43.5 -2.7e-05 4e-06 -47.7677 6.98439 -17.2413 42.3723 0 1e-05 71.1197 -5.01528 -5.83418 17.3 -6e-06 1.7e-05 21.4546 -1.9e-05 -0.003116 6.90197 -2.60373 -3e-06 11.4898 0.746826 -0.347085 12.5881 1e-05 8e-06 12.9567 1.56619 -0.820588 12.3432 -1.8e-05 -5e-06 12.6175 1.7061 -0.900311 25.8329 2.3e-05 7e-06 1.78261 -0.756621 -2.36175 11.7666 -8e-06 -6e-06 -8.04324 -8.27101 13.101 19.7459 -1.48035 6.0001 -179.023 -8.94466 -84.0832 11.2841 1.8e-05 -2e-05 -5.93002 -9.12479 57.7784 33 -1.3e-05 1.9e-05 -51.3209 -2.99276 -1.7128 25.2 3.2e-05 1.1e-05 -23.1071 24.6697 6.68868 19.7461 -1.48036 -6.00008 -171.464 -0.429237 71.2778 11.2841 7.10543e-15 -1e-06 -18.1847 -27.8429 -31.3296 33.0001 1.6e-05 -1e-06 -103.984 6.78661 25.9652 25.1998 0.000123 0.000432 3.66344 -23.5254 19.3927 
23.1273 75.8922 27.1332 -29.5791 61.7872 125.653 0.103456 1.85784 10.5485 -31.4794 22.7466 -171.76 43.5 -4.2e-05 1e-05 -73.2443 -9.37302 11.2544 42.3722 1.9e-05 3.55271e-15 70.6985 -4.05335 12.3793 17.3 0 3e-06 21.4546 -1e-06 0.003093 0.103456 1.85782 -10.5485 -27.4341 -18.6982 -178.152 43.5 -2.7e-05 4e-06 -55.351 9.79598 -19.8694 42.3723 0 1e-05 75.3292 -4.30109 -5.31228 17.3 -6e-06 1.7e-05 21.4546 -1.9e-05 -0.003116 6.90197 -2.60373 -3e-06 11.221 0.686684 -0.384701 12.5881 1e-05 8e-06 12.4203 1.43464 -0.879511 12.3432 -1.8e-05 -5e-06 12.0832 1.56302 -0.950776 25.8329 2.3e-05 7e-06 2.42263 -0.403365 -3.08928 11.7666 -8e-06 -6e-06 -4.96225 -6.49633 12.9777 19.7459 -1.48035 6.0001 -179.019 -8.64623 -80.908 11.2841 1.8e-05 -2e-05 -3.30978 -10.7169 56.6014 33 -1.3e-05 1.9e-05 -43.0018 0.195734 -4.23457 25.2 3.2e-05 1.1e-05 -19.1926 25.5396 5.69261 19.7461 -1.48036 -6.00008 -176.099 -0.644111 71.5978 11.2841 3.55271e-15 -1e-06 -25.4646 -26.2196 -29.5558 33.0001 1.6e-05 -1e-06 -95.4405 5.77272 23.3449 25.1998 0.000123 0.000432 4.89016 -22.7122 18.969 
